# Blender v3.0.1 OBJ File: 'level3_env.blend'
# www.blender.org
mtllib level3_env.mtl
o Environment_Cube.003
v -15.309994 -3.334885 24.403032
v -15.309994 -2.160373 24.403032
v -15.309994 -3.334885 -30.297590
v -15.309994 -2.160373 -30.297590
v 32.344933 -3.334885 24.403032
v 32.344933 -2.160373 24.403032
v 32.344933 -3.334885 -30.297590
v 32.344933 -2.160373 -30.297590
v 0.608346 -3.334885 -30.297590
v 0.608346 -2.160373 -30.297590
v 0.608346 -3.334885 24.403032
v 0.608346 -2.160373 24.403032
v -15.309994 4.914745 24.403032
v -15.309994 4.914745 -30.297590
v 0.608346 3.076386 24.403032
v 0.608346 3.076386 -30.297590
v -1.096075 -3.334885 -30.297590
v -1.096075 -2.160373 24.403032
v -1.096075 -2.160373 -30.297590
v -1.096075 -3.334885 24.403032
v -1.096075 4.914745 24.403032
v -1.096075 4.914745 -30.297590
v -15.309994 -3.334885 3.842591
v -15.309994 -2.160373 3.842591
v 32.344933 -3.334885 3.842591
v 32.344933 -2.160373 3.842591
v 0.608346 -2.160373 3.842591
v 0.608346 -3.334885 3.842591
v -15.309994 4.914745 3.842591
v 0.608346 3.076386 3.842591
v -1.096075 4.914745 3.842591
v -1.096075 -3.334885 3.842591
v -15.309994 -2.160373 -3.204821
v 32.344933 -3.334885 -3.204821
v -15.309994 4.914745 -3.204821
v -15.309994 -3.334885 -3.204821
v 32.344933 -2.160373 -3.204821
v 0.608346 -2.160373 -3.204821
v 0.608346 -3.334885 -3.204821
v 0.608346 3.076386 -3.204821
v -1.096075 4.914745 -3.204821
v -1.096075 -3.334885 -3.204821
v -4.393831 -3.414706 -30.303911
v -4.369086 -2.144593 24.398869
v -4.461320 4.914745 24.403032
v -4.369086 -2.144593 -30.301756
v -4.393831 -3.414706 24.396711
v -4.461320 4.914745 -30.297590
v -4.382504 -3.419445 3.835262
v -4.461320 4.914745 3.842591
v -4.461320 4.914745 -3.204821
v -4.382504 -3.419445 -3.212150
v -8.421037 -3.414706 -30.303911
v -8.396293 -2.144593 24.398869
v -8.488525 4.914745 24.403032
v -8.409711 -3.419445 3.835262
v -8.409711 -3.419445 -3.212150
v -8.396293 -2.144593 -30.301756
v -8.421037 -3.414706 24.396711
v -8.488525 4.914745 -30.297590
v -8.488525 4.914745 3.842591
v -8.488525 4.914745 -3.204821
v -8.476698 2.269266 3.808573
v -4.449399 2.251926 3.808564
v 0.608346 1.092433 -30.297590
v 0.608346 1.092433 24.403032
v -1.096075 2.234328 24.403032
v -1.096075 2.234328 -30.297590
v 0.608346 1.092433 3.842591
v 0.608346 1.092433 -3.204821
v -4.447329 2.310583 24.400568
v -4.440871 2.313497 -30.288212
v -4.450713 2.236443 -3.208319
v -8.468158 2.329389 -30.288204
v -15.309994 2.257396 24.403032
v -15.309994 2.257396 -30.297590
v -15.309994 2.257396 3.842591
v -15.309994 2.257396 -3.204821
v -8.474573 2.322132 24.400572
v -8.478040 2.256678 -3.208308
v 6.640723 -2.193293 7.332323
v 6.631073 1.418073 7.332323
v 6.640723 -2.193293 3.045175
v 6.631073 1.418073 3.045175
v 4.867485 -2.206789 3.045175
v 4.867485 -2.206789 7.332323
v 4.867485 1.418073 7.332323
v 4.867485 1.418073 3.045175
v 4.458933 -2.206789 3.045175
v 4.458933 -2.206789 7.332323
v 4.458933 1.418073 7.332323
v 4.458933 1.418073 3.045175
v -1.223617 -2.206789 3.045175
v -1.223617 -2.206789 7.332323
v -1.091657 4.911931 7.332323
v -1.091657 4.911931 3.045175
v 9.827474 -2.188897 7.332323
v 9.827474 -2.188897 3.045175
vt 0.630344 0.000000
vt 0.630344 0.106897
vt 0.547269 0.106897
vt 0.547269 0.000000
vt 0.182232 0.007265
vt 0.182232 0.114162
vt 0.000000 0.114162
vt 0.000000 0.007265
vt 0.335456 0.862779
vt 0.442345 0.862779
vt 0.442345 0.925824
vt 0.335456 0.925824
vt 0.313191 0.000000
vt 0.313333 0.115598
vt 0.273635 0.114162
vt 0.273635 0.007265
vt 0.778044 0.735343
vt 0.778045 0.917447
vt 0.715001 0.917447
vt 0.714999 0.735343
vt 0.799653 0.296030
vt 0.882727 0.296030
vt 0.882727 0.476584
vt 0.799653 0.476584
vt 0.272412 0.940309
vt 0.272412 0.758103
vt 0.335456 0.758108
vt 0.335456 0.940314
vt 0.778044 0.725563
vt 0.714999 0.725563
vt 0.547269 0.007265
vt 0.547269 0.114162
vt 0.365038 0.114162
vt 0.365038 0.007265
vt 0.192018 0.007265
vt 0.192018 0.114162
vt 0.882728 0.104686
vt 0.921891 0.104683
vt 0.921891 0.167727
vt 0.882728 0.167730
vt 0.651954 0.508975
vt 0.714998 0.508975
vt 0.714998 0.750830
vt 0.651954 0.750830
vt 0.234349 0.522792
vt 0.273635 0.516240
vt 0.273635 0.758095
vt 0.234466 0.758095
vt 0.355251 0.514140
vt 0.365038 0.410212
vt 0.365038 0.590779
vt 0.355251 0.758095
vt 0.336008 0.521080
vt 0.335928 0.758095
vt 0.182232 0.410212
vt 0.192018 0.514140
vt 0.192019 0.758095
vt 0.182232 0.590779
vt 0.778043 0.476584
vt 0.778043 0.644004
vt 0.714998 0.644004
vt 0.714998 0.476584
vt 0.210954 0.000000
vt 0.210812 0.115598
vt 0.778068 0.706418
vt 0.715020 0.706369
vt 0.355251 0.114162
vt 0.355251 0.007265
vt 0.799677 0.706418
vt 0.799653 0.725563
vt 0.799653 0.644004
vt 0.630344 0.508975
vt 0.630344 0.750830
vt 0.882728 0.083077
vt 0.921891 0.083074
vt 0.799654 0.735343
vt 0.250803 0.940308
vt 0.250803 0.758102
vt 0.714999 0.296030
vt 0.778043 0.296030
vt 0.799655 0.917447
vt 0.335456 0.841170
vt 0.442345 0.841170
vt 0.714998 0.000000
vt 0.714998 0.106897
vt 0.651954 0.106897
vt 0.651954 0.000000
vt 0.335456 0.758095
vt 0.442345 0.758095
vt 0.882728 0.735343
vt 0.882730 0.917447
vt 0.167729 0.940301
vt 0.167729 0.758095
vt 0.882728 0.725563
vt 0.882728 0.000003
vt 0.921891 0.000000
vt 0.547270 0.508975
vt 0.547270 0.750830
vt 0.882727 0.644004
vt 0.882749 0.706369
vt 0.882749 0.683261
vt 0.799677 0.683310
vt 0.902048 0.503153
vt 0.882728 0.503155
vt 0.882728 0.420081
vt 0.902048 0.420079
vt 0.882728 0.398472
vt 0.902048 0.398470
vt 0.778068 0.683310
vt 0.715020 0.683261
vt 0.211224 0.521346
vt 0.211342 0.758095
vt 0.882728 0.335428
vt 0.902048 0.335426
vt 0.336457 0.115598
vt 0.336315 0.000000
vt 0.273635 0.516240
vt 0.312884 0.522132
vt 0.312804 0.758095
vt 0.273635 0.758095
vt 0.273635 0.007265
vt 0.273635 0.114162
vt 0.233936 0.115598
vt 0.234078 0.000000
vt 0.778043 0.644004
vt 0.714999 0.644004
vt 0.799653 0.644004
vt 0.882728 0.644004
vt 0.905880 0.250741
vt 0.882728 0.250731
vt 0.882801 0.167730
vt 0.905947 0.167739
vt 0.905888 0.272262
vt 0.882740 0.272253
vt 0.905947 0.335426
vt 0.882808 0.335419
vt 0.651954 0.994593
vt 0.630344 0.994593
vt 0.630334 0.750830
vt 0.651849 0.752240
vt 0.714998 0.994593
vt 0.714991 0.757578
vt 0.547269 0.994593
vt 0.547298 0.757843
vt 0.778043 0.000000
vt 0.799653 0.000000
vt 0.714999 0.000000
vt 0.882728 0.000000
vt 0.084654 1.000000
vt 0.063045 1.000000
vt 0.063149 0.759241
vt 0.084665 0.758095
vt 0.000000 1.000000
vt 0.000008 0.764052
vt 0.167729 1.000000
vt 0.167700 0.764712
vt 0.625000 0.250000
vt 0.375000 0.250000
vt 0.375000 0.250000
vt 0.625000 0.250000
vt 0.875000 0.750000
vt 0.875000 0.500000
vt 0.875000 0.500000
vt 0.875000 0.750000
vt 0.375000 1.000000
vt 0.625000 1.000000
vt 0.625000 1.000000
vt 0.375000 1.000000
vt 0.875000 0.750000
vt 0.875000 0.500000
vt 0.125000 0.500000
vt 0.125000 0.750000
vt 0.125000 0.750000
vt 0.125000 0.500000
vt 0.625000 0.250000
vt 0.375000 0.250000
vt 0.375000 0.250000
vt 0.625000 0.250000
vt 0.125000 0.750000
vt 0.125000 0.500000
vt 0.625000 1.000000
vt 0.375000 1.000000
vt 0.375000 0.000000
vt 0.625000 0.000000
vt 0.625000 1.000000
vt 0.375000 1.000000
vt 0.875000 0.500000
vt 0.875000 0.750000
vt 0.125000 0.750000
vt 0.125000 0.500000
vt 0.125000 0.500000
vt 0.125000 0.750000
vt 0.375000 0.250000
vt 0.625000 1.000000
vt 0.875000 0.750000
vt 0.875000 0.500000
vn -1.0000 0.0000 0.0000
vn 0.0000 0.0000 -1.0000
vn 1.0000 0.0000 0.0000
vn 0.0008 -0.0009 1.0000
vn 0.0000 -1.0000 0.0000
vn 0.0000 1.0000 0.0000
vn 0.0000 0.0000 1.0000
vn 0.0007 -0.0018 -1.0000
vn -0.0004 -0.0005 1.0000
vn 0.7333 0.6799 0.0000
vn 0.0016 0.0009 -1.0000
vn 0.0250 -0.9997 0.0001
vn 0.0257 -0.9997 0.0000
vn 0.0250 -0.9997 -0.0001
vn 0.0000 -1.0000 -0.0002
vn 0.0000 -1.0000 0.0002
vn -0.0014 -0.0018 -1.0000
vn -0.0016 -0.0009 1.0000
vn 0.0002 -0.0005 1.0000
vn -0.0008 0.0009 -1.0000
vn -0.0119 -0.9999 0.0001
vn -0.0123 -0.9999 0.0000
vn -0.0119 -0.9999 -0.0001
vn 0.0045 1.0000 0.0028
vn 0.0047 1.0000 -0.0020
vn 0.0036 1.0000 -0.0027
vn -1.0000 -0.0042 0.0001
vn -1.0000 -0.0049 0.0001
vn -1.0000 -0.0059 -0.0002
vn -0.0008 0.0015 -1.0000
vn -0.0010 -0.0002 1.0000
vn 1.0000 0.0042 -0.0001
vn 1.0000 0.0049 -0.0001
vn 1.0000 0.0059 0.0002
vn 0.0005 -0.0002 1.0000
vn 0.0004 0.0015 -1.0000
vn 0.0000 0.0017 -1.0000
vn 0.0000 -0.0017 1.0000
vn -0.0000 -0.0004 1.0000
vn 0.0000 0.0030 -1.0000
vn 0.0076 -1.0000 0.0000
vn -0.9998 0.0185 0.0000
vn 0.5327 0.8463 0.0000
vn 0.0014 -1.0000 0.0000
vn 0.7484 0.6632 0.0000
usemtl None
s off
f 36/1/1 33/2/1 4/3/1 3/4/1
f 9/5/2 10/6/2 8/7/2 7/8/2
f 25/9/3 26/10/3 6/11/3 5/12/3
f 59/13/4 54/14/4 2/15/4 1/16/4
f 28/17/5 25/18/5 5/19/5 11/20/5
f 70/21/3 65/22/3 16/23/3 40/24/3
f 26/25/6 27/26/6 12/27/6 6/28/6
f 32/29/5 28/17/5 11/20/5 20/30/5
f 5/31/7 6/32/7 12/33/7 11/34/7
f 17/35/2 19/36/2 10/6/2 9/5/2
f 61/37/6 29/38/6 13/39/6 55/40/6
f 77/41/1 75/42/1 13/43/1 29/44/1
f 74/45/8 76/46/8 14/47/8 60/48/8
f 67/49/7 66/50/7 15/51/7 21/52/7
f 71/53/9 67/49/9 21/52/9 45/54/9
f 65/55/2 68/56/2 22/57/2 16/58/2
f 30/59/10 31/60/10 21/61/10 15/62/10
f 43/63/11 46/64/11 19/36/11 17/35/11
f 49/65/12 32/29/12 20/30/12 47/66/12
f 11/34/7 12/33/7 18/67/7 20/68/7
f 52/69/13 42/70/13 32/29/13 49/65/13
f 40/24/10 41/71/10 31/60/10 30/59/10
f 78/72/1 77/41/1 29/44/1 35/73/1
f 62/74/6 35/75/6 29/38/6 61/37/6
f 42/70/5 39/76/5 28/17/5 32/29/5
f 37/77/6 38/78/6 27/26/6 26/25/6
f 66/79/3 69/80/3 30/59/3 15/62/3
f 39/76/5 34/81/5 25/18/5 28/17/5
f 34/82/3 37/83/3 26/10/3 25/9/3
f 1/84/1 2/85/1 24/86/1 23/87/1
f 7/88/3 8/89/3 37/83/3 34/82/3
f 9/90/5 7/91/5 34/81/5 39/76/5
f 8/92/6 10/93/6 38/78/6 37/77/6
f 17/94/5 9/90/5 39/76/5 42/70/5
f 60/95/6 14/96/6 35/75/6 62/74/6
f 76/97/1 78/72/1 35/73/1 14/98/1
f 16/23/10 22/99/10 41/71/10 40/24/10
f 43/100/14 17/94/14 42/70/14 52/69/14
f 69/80/3 70/21/3 40/24/3 30/59/3
f 23/87/1 24/86/1 33/2/1 36/1/1
f 53/101/15 43/100/15 52/69/15 57/102/15
f 22/103/6 48/104/6 51/105/6 41/106/6
f 41/106/6 51/105/6 50/107/6 31/108/6
f 57/102/5 52/69/5 49/65/5 56/109/5
f 56/109/16 49/65/16 47/66/16 59/110/16
f 68/56/17 72/111/17 48/112/17 22/57/17
f 31/108/6 50/107/6 45/113/6 21/114/6
f 20/68/18 18/67/18 44/115/18 47/116/18
f 75/117/19 79/118/19 55/119/19 13/120/19
f 3/121/20 4/122/20 58/123/20 53/124/20
f 23/125/21 56/109/21 59/110/21 1/126/21
f 36/127/22 57/102/22 56/109/22 23/125/22
f 3/128/23 53/101/23 57/102/23 36/127/23
f 80/129/24 73/130/24 72/131/24 74/132/24
f 63/133/25 64/134/25 73/130/25 80/129/25
f 79/135/26 71/136/26 64/134/26 63/133/26
f 50/137/27 51/138/27 73/139/27 64/140/27
f 45/141/28 50/137/28 64/140/28 71/142/28
f 51/138/29 48/143/29 72/144/29 73/139/29
f 19/36/30 46/64/30 72/111/30 68/56/30
f 27/145/3 38/146/3 70/21/3 69/80/3
f 12/147/3 27/145/3 69/80/3 66/79/3
f 10/6/2 19/36/2 68/56/2 65/55/2
f 44/115/31 18/67/31 67/49/31 71/53/31
f 18/67/7 12/33/7 66/50/7 67/49/7
f 38/146/3 10/148/3 65/22/3 70/21/3
f 62/149/32 61/150/32 63/151/32 80/152/32
f 61/150/33 55/153/33 79/154/33 63/151/33
f 60/155/34 62/149/34 80/152/34 74/156/34
f 2/15/35 54/14/35 79/118/35 75/117/35
f 4/3/1 33/2/1 78/72/1 76/97/1
f 33/2/1 24/86/1 77/41/1 78/72/1
f 58/123/36 4/122/36 76/46/36 74/45/36
f 24/86/1 2/85/1 75/42/1 77/41/1
f 43/63/37 53/124/37 58/123/37 46/64/37
f 59/13/38 47/116/38 44/115/38 54/14/38
f 54/14/39 44/115/39 71/53/39 79/118/39
f 46/64/40 58/123/40 74/45/40 72/111/40
f 84/157/2 83/158/2 85/159/2 88/160/2
f 87/161/6 88/162/6 92/163/6 91/164/6
f 81/165/7 82/166/7 87/167/7 86/168/7
f 82/169/6 84/170/6 88/162/6 87/161/6
f 83/171/41 81/172/41 86/173/41 85/174/41
f 92/175/2 89/176/2 93/177/2 96/178/2
f 85/174/5 86/173/5 90/179/5 89/180/5
f 88/160/2 85/159/2 89/176/2 92/175/2
f 86/168/7 87/167/7 91/181/7 90/182/7
f 94/183/42 95/184/42 96/178/42 93/177/42
f 90/182/7 91/181/7 95/185/7 94/186/7
f 91/164/43 92/163/43 96/187/43 95/188/43
f 89/180/5 90/179/5 94/189/5 93/190/5
f 81/172/44 83/171/44 98/191/44 97/192/44
f 83/158/2 84/157/2 98/193/2
f 82/166/7 81/165/7 97/194/7
f 84/170/45 82/169/45 97/195/45 98/196/45
