# Blender v3.0.1 OBJ File: 'level3_irrigation_handles.blend'
# www.blender.org
mtllib level3_irrigation_handles.mtl
o Irrigation_Circle.002
v 0.000000 0.000000 0.000000
v 0.000000 0.841838 -0.000000
v 0.000000 0.681062 0.494820
v 0.000000 0.260142 0.800636
v 0.000000 -0.260142 0.800636
v -0.000000 -0.681062 0.494820
v -0.000000 -0.841838 -0.000000
v -0.000000 -0.681062 -0.494820
v -0.000000 -0.260142 -0.800636
v -0.000000 0.260143 -0.800636
v 0.000000 0.681062 -0.494820
v 0.216733 0.681062 0.494820
v 0.216733 0.841838 -0.000000
v 0.216733 -0.000000 -0.000000
v 0.216733 0.260142 0.800636
v 0.216733 -0.260142 0.800636
v 0.216733 -0.681062 0.494820
v 0.216733 -0.841838 -0.000000
v 0.216733 -0.681062 -0.494820
v 0.216733 -0.260142 -0.800636
v 0.216733 0.260143 -0.800636
v 0.216733 0.681062 -0.494820
v 4.595070 0.000000 0.000000
v 4.595070 0.841838 0.000000
v 4.595070 0.681062 0.494820
v 4.595070 0.260142 0.800636
v 4.595070 -0.260142 0.800636
v 4.595070 -0.681062 0.494820
v 4.595070 -0.841838 -0.000000
v 4.595070 -0.681062 -0.494820
v 4.595070 -0.260142 -0.800636
v 4.595070 0.260143 -0.800636
v 4.595070 0.681062 -0.494820
v 4.811804 0.681062 0.494820
v 4.811804 0.841838 -0.000000
v 4.811804 -0.000000 -0.000000
v 4.811804 0.260142 0.800636
v 4.811804 -0.260142 0.800636
v 4.811804 -0.681062 0.494820
v 4.811804 -0.841839 -0.000000
v 4.811804 -0.681062 -0.494820
v 4.811804 -0.260142 -0.800636
v 4.811804 0.260143 -0.800636
v 4.811804 0.681062 -0.494820
v 4.813561 -0.307294 0.307295
v 4.813560 26.887600 0.307295
v 4.813561 -0.307294 -0.307294
v 4.813560 26.887600 -0.307294
v 5.122021 26.887600 0.307294
v 5.122021 26.887600 -0.307294
v 5.029677 -0.307294 0.307295
v 5.122022 -0.123304 0.307294
v 5.122022 -0.123304 -0.307294
v 5.029677 -0.307294 -0.307294
v -0.002489 -0.307294 -0.307294
v -0.002489 26.887600 -0.307294
v -0.002489 -0.307294 0.307294
v -0.002489 26.887600 0.307294
v -0.310949 26.887600 -0.307294
v -0.310949 26.887600 0.307294
v -0.218605 -0.307294 -0.307294
v -0.310949 -0.123304 -0.307294
v -0.310949 -0.123304 0.307294
v -0.218605 -0.307294 0.307294
vt 0.500000 0.500000
vt 0.206107 0.904508
vt 0.500000 1.000000
vt 0.024472 0.654508
vt 0.024472 0.345491
vt 0.206107 0.095491
vt 0.500000 0.000000
vt 0.793893 0.095492
vt 0.975528 0.345491
vt 0.975528 0.654509
vt 0.793893 0.904508
vt 0.500000 0.500000
vt 0.500000 1.000000
vt 0.206107 0.904508
vt 0.024472 0.654508
vt 0.024472 0.345491
vt 0.206107 0.095491
vt 0.500000 0.000000
vt 0.793893 0.095492
vt 0.975528 0.345491
vt 0.975528 0.654509
vt 0.793893 0.904508
vt 0.500000 0.500000
vt 0.206107 0.904508
vt 0.500000 1.000000
vt 0.024472 0.654508
vt 0.024472 0.345491
vt 0.206107 0.095491
vt 0.500000 0.000000
vt 0.793893 0.095492
vt 0.975528 0.345491
vt 0.975528 0.654509
vt 0.793893 0.904508
vt 0.500000 0.500000
vt 0.500000 1.000000
vt 0.206107 0.904508
vt 0.024472 0.654508
vt 0.024472 0.345491
vt 0.206107 0.095491
vt 0.500000 0.000000
vt 0.793893 0.095492
vt 0.975528 0.345491
vt 0.975528 0.654509
vt 0.793893 0.904508
vt 0.375000 0.000000
vt 0.625000 0.000000
vt 0.625000 0.250000
vt 0.375000 0.250000
vt 0.375000 0.824843
vt 0.377073 0.750000
vt 0.625000 0.750000
vt 0.625000 1.000000
vt 0.375000 1.000000
vt 0.625000 0.500000
vt 0.377073 0.500000
vt 0.375000 0.425157
vt 0.875000 0.500000
vt 0.875000 0.750000
vt 0.300157 0.750000
vt 0.300157 0.500000
vt 0.125000 0.500000
vt 0.125000 0.750000
vt 0.375000 0.000000
vt 0.625000 0.000000
vt 0.625000 0.250000
vt 0.375000 0.250000
vt 0.375000 0.824843
vt 0.377073 0.750000
vt 0.625000 0.750000
vt 0.625000 1.000000
vt 0.375000 1.000000
vt 0.625000 0.500000
vt 0.377073 0.500000
vt 0.375000 0.425157
vt 0.875000 0.500000
vt 0.875000 0.750000
vt 0.300157 0.750000
vt 0.300157 0.500000
vt 0.125000 0.500000
vt 0.125000 0.750000
vn -1.0000 0.0000 0.0000
vn 1.0000 0.0000 -0.0000
vn 0.0000 -0.5878 0.8090
vn 0.0000 -0.9511 -0.3090
vn 0.0000 0.0000 -1.0000
vn 0.0000 -0.0000 1.0000
vn 0.0000 0.9511 -0.3090
vn 0.0000 -0.9511 0.3090
vn 0.0000 -0.5878 -0.8090
vn 0.0000 0.5878 0.8090
vn 0.0000 0.9511 0.3090
vn 0.0000 0.5878 -0.8090
vn 0.0000 1.0000 0.0000
vn 0.8937 -0.4486 0.0000
vn 0.0000 -1.0000 0.0000
vn -0.8937 -0.4486 0.0000
usemtl None
s off
f 1/1/1 3/2/1 2/3/1
f 1/1/1 4/4/1 3/2/1
f 1/1/1 5/5/1 4/4/1
f 1/1/1 6/6/1 5/5/1
f 1/1/1 7/7/1 6/6/1
f 1/1/1 8/8/1 7/7/1
f 1/1/1 9/9/1 8/8/1
f 1/1/1 10/10/1 9/9/1
f 1/1/1 11/11/1 10/10/1
f 1/1/1 2/3/1 11/11/1
f 14/12/2 13/13/2 12/14/2
f 14/12/2 12/14/2 15/15/2
f 14/12/2 15/15/2 16/16/2
f 14/12/2 16/16/2 17/17/2
f 14/12/2 17/17/2 18/18/2
f 14/12/2 18/18/2 19/19/2
f 14/12/2 19/19/2 20/20/2
f 14/12/2 20/20/2 21/21/2
f 14/12/2 21/21/2 22/22/2
f 14/12/2 22/22/2 13/13/2
f 5/5/3 6/6/3 17/17/3 16/16/3
f 7/7/4 8/8/4 19/19/4 18/18/4
f 9/9/5 10/10/5 21/21/5 20/20/5
f 4/4/6 5/5/6 16/16/6 15/15/6
f 11/11/7 2/3/7 13/13/7 22/22/7
f 6/6/8 7/7/8 18/18/8 17/17/8
f 8/8/9 9/9/9 20/20/9 19/19/9
f 3/2/10 4/4/10 15/15/10 12/14/10
f 2/3/11 3/2/11 12/14/11 13/13/11
f 10/10/12 11/11/12 22/22/12 21/21/12
f 23/23/1 25/24/1 24/25/1
f 23/23/1 26/26/1 25/24/1
f 23/23/1 27/27/1 26/26/1
f 23/23/1 28/28/1 27/27/1
f 23/23/1 29/29/1 28/28/1
f 23/23/1 30/30/1 29/29/1
f 23/23/1 31/31/1 30/30/1
f 23/23/1 32/32/1 31/31/1
f 23/23/1 33/33/1 32/32/1
f 23/23/1 24/25/1 33/33/1
f 36/34/2 35/35/2 34/36/2
f 36/34/2 34/36/2 37/37/2
f 36/34/2 37/37/2 38/38/2
f 36/34/2 38/38/2 39/39/2
f 36/34/2 39/39/2 40/40/2
f 36/34/2 40/40/2 41/41/2
f 36/34/2 41/41/2 42/42/2
f 36/34/2 42/42/2 43/43/2
f 36/34/2 43/43/2 44/44/2
f 36/34/2 44/44/2 35/35/2
f 27/27/3 28/28/3 39/39/3 38/38/3
f 29/29/4 30/30/4 41/41/4 40/40/4
f 31/31/5 32/32/5 43/43/5 42/42/5
f 26/26/6 27/27/6 38/38/6 37/37/6
f 33/33/7 24/25/7 35/35/7 44/44/7
f 28/28/8 29/29/8 40/40/8 39/39/8
f 30/30/9 31/31/9 42/42/9 41/41/9
f 25/24/10 26/26/10 37/37/10 34/36/10
f 24/25/11 25/24/11 34/36/11 35/35/11
f 32/32/12 33/33/12 44/44/12 43/43/12
f 45/45/1 46/46/1 48/47/1 47/48/1
f 51/49/6 52/50/6 49/51/6 46/52/6 45/53/6
f 47/48/5 48/47/5 50/54/5 53/55/5 54/56/5
f 53/55/2 50/54/2 49/51/2 52/50/2
f 50/54/13 48/57/13 46/58/13 49/51/13
f 51/59/14 54/60/14 53/55/14 52/50/14
f 47/61/15 54/60/15 51/59/15 45/62/15
f 55/63/2 56/64/2 58/65/2 57/66/2
f 61/67/5 62/68/5 59/69/5 56/70/5 55/71/5
f 57/66/6 58/65/6 60/72/6 63/73/6 64/74/6
f 63/73/1 60/72/1 59/69/1 62/68/1
f 60/72/13 58/75/13 56/76/13 59/69/13
f 61/77/16 64/78/16 63/73/16 62/68/16
f 57/79/15 64/78/15 61/77/15 55/80/15
