# Blender v3.0.1 OBJ File: 'level3_trough.blend'
# www.blender.org
mtllib level3_trough.mtl
o Trough_Cube.024
v -2.906400 -0.273693 -17.296162
v -2.906400 -0.273693 -19.513731
v -2.906400 0.354866 -19.513731
v 2.891416 -0.273693 -17.296162
v 2.891416 -0.273693 -19.513731
v 2.891416 0.354866 -19.513731
v -2.906400 0.034632 -17.296162
v -2.906400 0.354866 -18.425955
v 2.891416 0.354866 -18.425955
v 2.891416 0.034632 -17.296162
v 2.886976 -0.269244 29.732428
v 3.321152 0.549222 29.251024
v 2.886976 -0.269244 -19.505117
v 3.321152 0.549222 -19.023710
v 4.886976 -0.269244 29.732428
v 4.452800 0.549222 29.251024
v 4.886976 -0.269244 -19.505117
v 4.452800 0.549222 -19.023710
v 2.886976 0.244755 29.732428
v 2.886976 0.244755 -19.505117
v 4.886976 0.244755 -19.505117
v 4.886976 0.244755 29.732428
v -4.882814 -0.269244 29.732428
v -4.448639 0.549222 29.251024
v -4.882814 -0.269244 -19.505117
v -4.448639 0.549222 -19.023710
v -2.882814 -0.269244 29.732428
v -3.316990 0.549222 29.251024
v -2.882814 -0.269244 -19.505117
v -3.316990 0.549222 -19.023710
v -4.882814 0.244755 29.732428
v -4.882814 0.244755 -19.505117
v -2.882814 0.244755 -19.505117
v -2.882814 0.244755 29.732428
v 2.886976 -0.517686 -19.505117
v 2.886976 -0.517686 29.732428
v 4.886976 -0.517686 -19.505117
v 4.886976 -0.517686 29.732428
v -4.882814 -0.517686 -19.505117
v -4.882814 -0.517686 29.732428
v -2.882814 -0.517686 -19.505117
v -2.882814 -0.517686 29.732428
v 2.886976 -0.112584 -19.505117
v 2.886976 -0.112584 29.732428
v -2.882814 -0.112584 29.732428
v -2.882814 -0.112584 -19.505117
vt 0.625000 0.500000
vt 0.875000 0.500000
vt 0.875000 0.622632
vt 0.625000 0.622632
vt 0.375000 0.250000
vt 0.625000 0.250000
vt 0.375000 0.500000
vt 0.375000 0.000000
vt 0.497632 0.000000
vt 0.625000 0.127368
vt 0.125000 0.500000
vt 0.375000 0.750000
vt 0.125000 0.750000
vt 0.497632 0.750000
vt 0.625000 0.750000
vt 0.625000 1.000000
vt 0.497632 1.000000
vt 0.375000 1.000000
vt 0.375000 0.000000
vt 0.625000 0.000000
vt 0.625000 0.250000
vt 0.375000 0.250000
vt 0.625000 0.500000
vt 0.375000 0.500000
vt 0.625000 0.750000
vt 0.375000 0.750000
vt 0.625000 1.000000
vt 0.375000 1.000000
vt 0.375000 0.000000
vt 0.375000 0.250000
vt 0.375000 0.250000
vt 0.375000 0.000000
vt 0.679272 0.502444
vt 0.820728 0.502444
vt 0.820728 0.747556
vt 0.679272 0.747556
vt 0.875000 0.500000
vt 0.875000 0.750000
vt 0.625000 0.000000
vt 0.625000 0.250000
vt 0.625000 0.500000
vt 0.375000 0.500000
vt 0.625000 0.750000
vt 0.375000 0.750000
vt 0.625000 1.000000
vt 0.375000 1.000000
vt 0.375000 0.500000
vt 0.679272 0.502444
vt 0.820728 0.502444
vt 0.820728 0.747556
vt 0.679272 0.747556
vt 0.875000 0.500000
vt 0.875000 0.750000
vt 0.375000 0.500000
vt 0.375000 0.250000
vt 0.125000 0.500000
vt 0.375000 0.750000
vt 0.125000 0.750000
vt 0.125000 0.500000
vt 0.375000 0.750000
vt 0.125000 0.750000
vt 0.375000 1.000000
vt 0.000000 0.000000
vt 0.000000 0.000000
vt 0.000000 0.000000
vt 0.000000 0.000000
vt 0.375000 1.000000
vt 0.375000 0.500000
vt 0.375000 0.750000
vt 0.125000 0.750000
vt 0.125000 0.500000
vt 0.000000 0.000000
vt 0.000000 0.000000
vn 0.0000 1.0000 0.0000
vn 0.0000 0.0000 -1.0000
vn -1.0000 -0.0000 0.0000
vn 0.0000 -1.0000 0.0000
vn 1.0000 0.0000 0.0000
vn 0.0000 0.9621 0.2727
vn 0.0000 0.0000 1.0000
vn -0.5742 0.8188 0.0000
vn 0.0000 0.8452 -0.5345
vn 0.5742 0.8188 0.0000
vn 0.0000 0.8452 0.5345
vn -0.5742 0.8187 0.0000
usemtl None
s off
f 6/1/1 3/2/1 8/3/1 9/4/1
f 2/5/2 3/6/2 6/1/2 5/7/2
f 1/8/3 7/9/3 8/10/3 3/6/3 2/5/3
f 2/11/4 5/7/4 4/12/4 1/13/4
f 5/7/5 6/1/5 9/4/5 10/14/5 4/12/5
f 9/15/6 8/16/6 7/17/6 10/14/6
f 4/12/7 10/14/7 7/17/7 1/18/7
f 11/19/3 19/20/3 20/21/3 13/22/3
f 13/22/2 20/21/2 21/23/2 17/24/2
f 17/24/5 21/23/5 22/25/5 15/26/5
f 15/26/7 22/25/7 19/27/7 11/28/7
f 23/29/3 25/30/3 39/31/3 40/32/3
f 18/33/1 14/34/1 12/35/1 16/36/1
f 12/35/8 14/34/8 20/37/8 19/38/8
f 14/34/9 18/33/9 21/23/9 20/37/9
f 18/33/10 16/36/10 22/25/10 21/23/10
f 16/36/11 12/35/11 19/38/11 22/25/11
f 23/29/3 31/39/3 32/40/3 25/30/3
f 25/30/2 32/40/2 33/41/2 29/42/2
f 29/42/5 33/41/5 34/43/5 27/44/5
f 27/44/7 34/43/7 31/45/7 23/46/7
f 25/30/2 29/42/2 41/47/2 39/31/2
f 30/48/1 26/49/1 24/50/1 28/51/1
f 24/50/12 26/49/12 32/52/12 31/53/12
f 26/49/9 30/48/9 33/41/9 32/52/9
f 30/48/10 28/51/10 34/43/10 33/41/10
f 28/51/11 24/50/11 31/53/11 34/43/11
f 13/22/2 17/24/2 37/54/2 35/55/2
f 35/56/4 37/54/4 38/57/4 36/58/4
f 39/59/4 41/47/4 42/60/4 40/61/4
f 17/24/5 15/26/5 38/57/5 37/54/5
f 15/26/7 11/28/7 36/62/7 38/57/7
f 29/63/2 13/64/2 35/65/2 41/66/2
f 27/44/7 23/46/7 40/67/7 42/60/7
f 42/60/5 41/47/5 46/68/5 45/69/5
f 35/56/3 36/58/3 44/70/3 43/71/3
f 41/66/7 35/65/7 43/72/7 46/73/7
