# Blender v3.0.1 OBJ File: 'level3_generator.blend'
# www.blender.org
mtllib level3_generator.mtl
o Generator_Cube.005
v -0.904775 -2.630210 5.120141
v -0.904775 -2.379747 5.659023
v -1.000000 -2.379747 5.120141
v -0.904775 2.379747 5.659023
v -0.904775 2.630210 5.120141
v -1.000000 2.379747 5.120141
v -0.904775 -2.630210 -5.120141
v -1.000000 -2.379747 -5.120141
v -0.904775 -2.379747 -5.659023
v -0.904775 2.630210 -5.120141
v -0.904775 2.379747 -5.659023
v -1.000000 2.379747 -5.120141
v 0.904775 -2.630210 5.120141
v 1.000000 -2.379747 5.120141
v 0.904775 -2.379747 5.659023
v 0.904775 2.630210 5.120141
v 0.904775 2.379747 5.659023
v 1.000000 2.379747 5.120141
v 0.904775 -2.630210 -5.120141
v 0.904775 -2.379747 -5.659023
v 1.000000 -2.379747 -5.120141
v 0.904775 2.630210 -5.120141
v 1.000000 2.379747 -5.120141
v 0.904775 2.379747 -5.659023
v 1.079694 -1.513403 -0.919417
v 1.079694 -1.513403 -0.480738
v 1.079694 -1.255554 -0.564519
v 1.079694 -1.096194 -0.783858
v 1.079694 -1.096194 -1.054977
v 1.079694 -1.255554 -1.274316
v 1.079694 -1.513403 -1.358096
v 1.079694 -1.771252 -1.274316
v 1.079694 -1.930612 -1.054977
v 1.079694 -1.930612 -0.783858
v 1.079694 -1.771252 -0.564519
v 1.174816 -1.255554 -0.564519
v 1.174816 -1.513403 -0.480738
v 1.174816 -1.513403 -0.919417
v 1.174816 -1.096194 -0.783858
v 1.174816 -1.096194 -1.054977
v 1.174816 -1.255554 -1.274316
v 1.174816 -1.513403 -1.358096
v 1.174816 -1.771252 -1.274316
v 1.174816 -1.930612 -1.054977
v 1.174816 -1.930612 -0.783858
v 1.174816 -1.771252 -0.564519
v 0.954910 -1.513403 -0.919417
v 0.954910 -1.513403 -0.348735
v 0.954910 -1.177965 -0.457726
v 0.954910 -0.970652 -0.743067
v 0.954910 -0.970652 -1.095767
v 0.954911 -1.177965 -1.381108
v 0.954911 -1.513403 -1.490099
v 0.954911 -1.848841 -1.381108
v 0.954910 -2.056154 -1.095767
v 0.954910 -2.056154 -0.743067
v 0.954910 -1.848841 -0.457726
v 1.078655 -1.177965 -0.457726
v 1.078655 -1.513403 -0.348735
v 1.078655 -1.513403 -0.919417
v 1.078655 -0.970652 -0.743067
v 1.078655 -0.970652 -1.095767
v 1.078655 -1.177965 -1.381108
v 1.078655 -1.513403 -1.490099
v 1.078655 -1.848841 -1.381108
v 1.078655 -2.056154 -1.095767
v 1.078655 -2.056154 -0.743067
v 1.078655 -1.848841 -0.457726
v -0.072912 -2.057940 -14.066441
v -0.069036 -1.648665 -14.076611
v -0.160774 -1.722028 -14.071612
v -0.218566 -1.923120 -14.062504
v -0.220338 -2.175131 -14.052764
v -0.165413 -2.381801 -14.046113
v -0.074770 -2.464189 -14.045092
v 0.016967 -2.390826 -14.050091
v 0.074759 -2.189733 -14.059200
v 0.076531 -1.937722 -14.068939
v 0.021606 -1.731053 -14.075590
v -0.164572 -1.314329 -5.443488
v -0.073362 -1.236381 -5.443488
v -0.073362 -1.644524 -5.443488
v -0.220942 -1.518400 -5.443488
v -0.220942 -1.770646 -5.443488
v -0.164572 -1.974718 -5.443488
v -0.073362 -2.052666 -5.443488
v 0.017847 -1.974718 -5.443488
v 0.074218 -1.770646 -5.443488
v 0.074218 -1.518400 -5.443488
v 0.017847 -1.314329 -5.443488
v 0.026318 -2.357302 -11.237742
v -0.065668 -2.427734 -11.249154
v 0.087438 -1.913143 -11.153551
v 0.084800 -2.160746 -11.201226
v -0.210237 -2.141067 -11.190480
v -0.207599 -1.893464 -11.142806
v -0.057131 -1.626476 -11.094876
v 0.033225 -1.709070 -11.112929
v -0.156025 -2.345140 -11.231102
v -0.149118 -1.696908 -11.106288
v 0.012701 -2.388199 -8.357184
v 0.072752 -1.938398 -8.302949
v -0.224382 -2.172151 -8.332982
v -0.072512 -1.650117 -8.269466
v -0.079118 -2.460432 -8.366466
v 0.070710 -2.188800 -8.332923
v -0.222341 -1.921750 -8.303008
v 0.018045 -1.732640 -8.278710
v -0.169676 -2.377909 -8.357221
v -0.164332 -1.722350 -8.278747
v 0.001955 -2.265121 -6.891547
v 0.061863 -1.812724 -6.864778
v -0.235191 -2.048341 -6.883574
v -0.083488 -1.523135 -6.850995
v -0.089840 -2.337930 -6.897356
v 0.059900 -2.064510 -6.879103
v -0.233228 -1.796555 -6.869249
v 0.007094 -1.605937 -6.854041
v -0.180422 -2.255128 -6.894310
v -0.175283 -1.595944 -6.856804
v -0.072101 -2.461637 -9.805465
v 0.077629 -2.190533 -9.765278
v -0.215519 -1.925675 -9.724459
v 0.024799 -1.736416 -9.696885
v -0.162689 -2.379792 -9.792852
v -0.157582 -1.726861 -9.694804
v 0.019692 -2.389347 -9.794932
v 0.079579 -1.941136 -9.727826
v -0.217470 -2.175072 -9.761910
v -0.065789 -1.654571 -9.684271
v 0.021511 -2.375716 -12.649205
v 0.082631 -1.931558 -12.565014
v -0.215044 -2.159481 -12.601942
v -0.061938 -1.644890 -12.506339
v -0.070476 -2.446149 -12.660617
v 0.079993 -2.179160 -12.612687
v -0.212406 -1.911879 -12.554267
v 0.028418 -1.727485 -12.524391
v -0.160832 -2.363554 -12.642564
v -0.153925 -1.715322 -12.517751
v -0.072163 -1.726874 -5.889653
v -0.072163 -1.120415 -5.889653
v -0.207691 -1.236238 -5.889653
v -0.291453 -1.539468 -5.889653
v -0.291452 -1.914280 -5.889653
v -0.207691 -2.217509 -5.889653
v -0.072163 -2.333333 -5.889653
v 0.063365 -2.217509 -5.889653
v 0.147126 -1.914280 -5.889653
v 0.147126 -1.539468 -5.889653
v 0.063365 -1.236238 -5.889653
v -0.207691 -1.236238 -5.632649
v -0.072163 -1.120415 -5.632649
v -0.072163 -1.726874 -5.632649
v -0.291453 -1.539468 -5.632649
v -0.291452 -1.914280 -5.632649
v -0.207691 -2.217509 -5.632649
v -0.072163 -2.333333 -5.632649
v 0.063365 -2.217509 -5.632649
v 0.147126 -1.914280 -5.632649
v 0.147126 -1.539468 -5.632649
v 0.063365 -1.236238 -5.632649
vt 0.386903 0.761903
vt 0.613097 0.761903
vt 0.613097 0.988097
vt 0.386903 0.988097
vt 0.386903 0.511903
vt 0.613097 0.511903
vt 0.613097 0.738097
vt 0.386903 0.738097
vt 0.636903 0.511903
vt 0.863097 0.511903
vt 0.863097 0.738097
vt 0.636903 0.738097
vt 0.386903 0.011903
vt 0.613097 0.011903
vt 0.613097 0.238097
vt 0.386903 0.238097
vt 0.386903 0.261903
vt 0.613097 0.261903
vt 0.613097 0.488097
vt 0.386903 0.488097
vt 0.136903 0.738097
vt 0.136903 0.750000
vt 0.125000 0.738097
vt 0.625000 0.988097
vt 0.613097 1.000000
vt 0.136903 0.511903
vt 0.125000 0.511903
vt 0.136903 0.500000
vt 0.625000 0.261903
vt 0.625000 0.261903
vt 0.613097 0.250000
vt 0.363097 0.738097
vt 0.375000 0.738097
vt 0.363097 0.750000
vt 0.625000 0.761903
vt 0.625000 0.761903
vt 0.613097 0.750000
vt 0.363097 0.511903
vt 0.363097 0.500000
vt 0.375000 0.511903
vt 0.625000 0.511903
vt 0.625000 0.511903
vt 0.613097 0.500000
vt 0.386903 0.000000
vt 0.613097 0.000000
vt 0.625000 0.011903
vt 0.625000 0.238097
vt 0.625000 0.488097
vt 0.500000 0.500000
vt 0.206107 0.904508
vt 0.500000 1.000000
vt 0.024472 0.654508
vt 0.024472 0.345491
vt 0.206107 0.095491
vt 0.500000 0.000000
vt 0.793893 0.095492
vt 0.975528 0.345491
vt 0.975528 0.654509
vt 0.793893 0.904508
vt 0.500000 0.500000
vt 0.500000 1.000000
vt 0.206107 0.904508
vt 0.024472 0.654508
vt 0.024472 0.345491
vt 0.206107 0.095491
vt 0.500000 0.000000
vt 0.793893 0.095492
vt 0.975528 0.345491
vt 0.975528 0.654509
vt 0.793893 0.904508
vt 0.500000 0.500000
vt 0.206107 0.904508
vt 0.500000 1.000000
vt 0.024472 0.654508
vt 0.024472 0.345491
vt 0.206107 0.095491
vt 0.500000 0.000000
vt 0.793893 0.095492
vt 0.975528 0.345491
vt 0.975528 0.654509
vt 0.793893 0.904508
vt 0.500000 0.500000
vt 0.500000 1.000000
vt 0.206107 0.904508
vt 0.024472 0.654508
vt 0.024472 0.345491
vt 0.206107 0.095491
vt 0.500000 0.000000
vt 0.793893 0.095492
vt 0.975528 0.345491
vt 0.975528 0.654509
vt 0.793893 0.904508
vt 0.500000 0.500000
vt 0.206107 0.904508
vt 0.500000 1.000000
vt 0.024472 0.654508
vt 0.024472 0.345491
vt 0.206107 0.095491
vt 0.500000 0.000000
vt 0.793893 0.095492
vt 0.975528 0.345491
vt 0.975528 0.654509
vt 0.793893 0.904508
vt 0.500000 0.500000
vt 0.500000 1.000000
vt 0.206107 0.904508
vt 0.024472 0.654508
vt 0.024472 0.345491
vt 0.206107 0.095491
vt 0.500000 0.000000
vt 0.793893 0.095492
vt 0.975528 0.345491
vt 0.975528 0.654509
vt 0.793893 0.904508
vt 0.500000 0.000000
vt 0.793893 0.095492
vt 0.975528 0.345491
vt 0.975528 0.654509
vt 0.024472 0.654508
vt 0.024472 0.345491
vt 0.793893 0.904508
vt 0.500000 1.000000
vt 0.206107 0.095491
vt 0.206107 0.904508
vt 0.024472 0.345491
vt 0.206107 0.095491
vt 0.206107 0.095491
vt 0.024472 0.345491
vt 0.975528 0.654509
vt 0.793892 0.904508
vt 0.793893 0.904508
vt 0.975528 0.654509
vt 0.500000 1.000000
vt 0.206107 0.904508
vt 0.206107 0.904508
vt 0.500000 1.000000
vt 0.024472 0.654508
vt 0.024472 0.654508
vt 0.793893 0.095492
vt 0.975528 0.345491
vt 0.975528 0.345491
vt 0.793893 0.095492
vt 0.500000 0.000000
vt 0.500000 0.000000
vt 0.024472 0.345491
vt 0.206107 0.095491
vt 0.206107 0.095491
vt 0.024472 0.345491
vt 0.975528 0.654509
vt 0.793892 0.904508
vt 0.793893 0.904508
vt 0.975528 0.654509
vt 0.500000 1.000000
vt 0.206107 0.904508
vt 0.206107 0.904508
vt 0.500000 1.000000
vt 0.024472 0.654508
vt 0.024472 0.654508
vt 0.793893 0.095492
vt 0.975528 0.345491
vt 0.975528 0.345491
vt 0.793893 0.095492
vt 0.500000 0.000000
vt 0.500000 0.000000
vt 0.500000 0.500000
vt 0.206107 0.904508
vt 0.500000 1.000000
vt 0.024472 0.654508
vt 0.024472 0.345491
vt 0.206107 0.095491
vt 0.500000 0.000000
vt 0.793893 0.095492
vt 0.975528 0.345491
vt 0.975528 0.654509
vt 0.793893 0.904508
vt 0.500000 0.500000
vt 0.500000 1.000000
vt 0.206107 0.904508
vt 0.024472 0.654508
vt 0.024472 0.345491
vt 0.206107 0.095491
vt 0.500000 0.000000
vt 0.793893 0.095492
vt 0.975528 0.345491
vt 0.975528 0.654509
vt 0.793893 0.904508
vn 0.0000 0.0000 1.0000
vn 1.0000 0.0000 0.0000
vn 0.0000 1.0000 0.0000
vn -1.0000 0.0000 0.0000
vn 0.0000 0.0000 -1.0000
vn -0.9222 -0.3506 0.1630
vn -0.9222 0.3506 0.1630
vn -0.9222 -0.3506 -0.1630
vn -0.9222 0.3506 -0.1630
vn 0.9222 -0.3506 0.1630
vn 0.9222 0.3506 0.1630
vn 0.9222 -0.3506 -0.1630
vn 0.9222 0.3506 -0.1630
vn -0.9347 -0.3554 0.0000
vn -0.9847 0.0000 0.1740
vn -0.9347 0.3554 0.0000
vn -0.9847 0.0000 -0.1740
vn 0.0000 -0.9068 -0.4215
vn 0.0000 0.9068 -0.4215
vn 0.9847 0.0000 -0.1740
vn 0.9347 -0.3554 0.0000
vn 0.9347 0.3554 0.0000
vn 0.9847 0.0000 0.1740
vn 0.0000 -0.9068 0.4215
vn 0.0000 0.9068 0.4215
vn 0.0000 -1.0000 0.0000
vn 0.0000 0.3090 -0.9511
vn 0.0000 -0.3090 0.9511
vn 0.0000 0.8090 0.5878
vn 0.0000 -0.8090 -0.5878
vn 0.0000 0.8090 -0.5878
vn 0.0000 -0.3090 -0.9511
vn 0.0000 -0.8090 0.5878
vn 0.0000 0.3090 0.9511
vn -0.0348 -0.0245 -0.9991
vn -0.0544 -0.0296 -0.9981
vn -0.0622 -0.0381 -0.9973
vn -0.0553 -0.0468 -0.9974
vn -0.0363 -0.0523 -0.9980
vn -0.0125 -0.0524 -0.9985
vn 0.0068 -0.0472 -0.9989
vn 0.0144 -0.0387 -0.9991
vn 0.0075 -0.0302 -0.9995
vn -0.0112 -0.0247 -0.9996
vn 0.6264 -0.7659 0.1450
vn 1.0000 -0.0037 -0.0086
vn -1.0000 0.0037 0.0086
vn 0.6527 0.7411 -0.1569
vn -0.6533 -0.7417 0.1517
vn 0.9610 -0.2729 0.0452
vn -0.9610 0.2729 -0.0460
vn -0.6258 0.7655 -0.1496
vn 0.9630 0.2621 -0.0621
vn -0.9631 -0.2621 0.0606
vn -0.9661 -0.2580 0.0067
vn 0.9661 0.2580 -0.0067
vn -0.6073 0.7945 -0.0083
vn -0.9585 0.2853 -0.0005
vn 0.9585 -0.2853 0.0005
vn -0.6733 -0.7392 0.0119
vn 0.6733 0.7392 -0.0119
vn -0.9999 0.0100 0.0033
vn 0.9999 -0.0100 -0.0033
vn 0.6073 -0.7945 0.0083
vn -0.9664 -0.2572 -0.0043
vn 0.9663 0.2572 0.0040
vn -0.6181 0.7861 -0.0054
vn -0.9599 0.2802 -0.0054
vn 0.9599 -0.2802 0.0049
vn -0.6721 -0.7404 -0.0025
vn 0.6720 0.7405 0.0010
vn -1.0000 0.0086 -0.0048
vn 1.0000 -0.0086 0.0048
vn 0.6183 -0.7860 0.0037
vn -0.9661 -0.2576 0.0147
vn 0.9661 0.2577 -0.0153
vn -0.6143 0.7855 -0.0748
vn -0.9592 0.2810 -0.0321
vn 0.9592 -0.2809 0.0309
vn -0.6709 -0.7393 0.0569
vn 0.6706 0.7393 -0.0608
vn -0.9999 0.0087 -0.0083
vn 0.9999 -0.0087 0.0083
vn 0.6148 -0.7856 0.0702
vn 0.6144 -0.7888 -0.0152
vn 0.9999 -0.0101 0.0050
vn -0.9999 0.0101 -0.0051
vn 0.6742 0.7384 0.0186
vn -0.6743 -0.7382 -0.0206
vn 0.9593 -0.2822 -0.0015
vn -0.9593 0.2824 0.0006
vn -0.6142 0.7890 0.0125
vn 0.9666 0.2559 0.0105
vn -0.9667 -0.2558 -0.0108
vn 0.6162 -0.7876 0.0074
vn 1.0000 -0.0085 -0.0038
vn -1.0000 0.0085 0.0038
vn 0.6734 0.7393 -0.0047
vn -0.6730 -0.7395 0.0118
vn 0.9598 -0.2806 -0.0008
vn -0.9599 0.2805 0.0024
vn -0.6163 0.7875 0.0001
vn 0.9664 0.2572 -0.0049
vn -0.9663 -0.2573 0.0064
vn 0.6497 -0.7602 0.0000
vn 0.6497 0.7602 0.0000
vn -0.6497 -0.7602 0.0000
vn 0.9639 -0.2663 0.0000
vn -0.9639 0.2663 0.0000
vn 0.9639 0.2663 0.0000
vn -0.6497 0.7602 0.0000
vn -0.9639 -0.2663 0.0000
usemtl None
s off
f 15/1/1 17/2/1 4/3/1 2/4/1
f 21/5/2 23/6/2 18/7/2 14/8/2
f 22/9/3 10/10/3 5/11/3 16/12/3
f 3/13/4 6/14/4 12/15/4 8/16/4
f 9/17/5 11/18/5 24/19/5 20/20/5
f 1/21/6 2/22/6 3/23/6
f 4/3/7 5/24/7 6/25/7
f 7/26/8 8/27/8 9/28/8
f 10/29/9 11/30/9 12/31/9
f 13/32/10 14/33/10 15/34/10
f 16/35/11 17/36/11 18/37/11
f 19/38/12 20/39/12 21/40/12
f 22/41/13 23/42/13 24/43/13
f 7/26/14 1/21/14 3/23/14 8/27/14
f 2/44/15 4/45/15 6/14/15 3/13/15
f 5/46/16 10/47/16 12/15/16 6/14/16
f 11/18/17 9/17/17 8/16/17 12/15/17
f 19/38/18 7/26/18 9/28/18 20/39/18
f 10/29/19 22/48/19 24/19/19 11/18/19
f 23/6/20 21/5/20 20/20/20 24/19/20
f 13/32/21 19/38/21 21/5/21 14/8/21
f 22/9/22 16/12/22 18/7/22 23/6/22
f 17/2/23 15/1/23 14/8/23 18/7/23
f 1/21/24 13/32/24 15/34/24 2/22/24
f 16/35/25 5/24/25 4/3/25 17/2/25
f 7/26/26 19/38/26 13/32/26 1/21/26
f 25/49/2 27/50/2 26/51/2
f 25/49/2 28/52/2 27/50/2
f 25/49/2 29/53/2 28/52/2
f 25/49/2 30/54/2 29/53/2
f 25/49/2 31/55/2 30/54/2
f 25/49/2 32/56/2 31/55/2
f 25/49/2 33/57/2 32/56/2
f 25/49/2 34/58/2 33/57/2
f 25/49/2 35/59/2 34/58/2
f 25/49/2 26/51/2 35/59/2
f 38/60/4 37/61/4 36/62/4
f 38/60/4 36/62/4 39/63/4
f 38/60/4 39/63/4 40/64/4
f 38/60/4 40/64/4 41/65/4
f 38/60/4 41/65/4 42/66/4
f 38/60/4 42/66/4 43/67/4
f 38/60/4 43/67/4 44/68/4
f 38/60/4 44/68/4 45/69/4
f 38/60/4 45/69/4 46/70/4
f 38/60/4 46/70/4 37/61/4
f 33/57/3 34/58/3 45/69/3 44/68/3
f 28/52/26 29/53/26 40/64/26 39/63/26
f 35/59/27 26/51/27 37/61/27 46/70/27
f 30/54/28 31/55/28 42/66/28 41/65/28
f 32/56/29 33/57/29 44/68/29 43/67/29
f 27/50/30 28/52/30 39/63/30 36/62/30
f 34/58/31 35/59/31 46/70/31 45/69/31
f 26/51/32 27/50/32 36/62/32 37/61/32
f 29/53/33 30/54/33 41/65/33 40/64/33
f 31/55/34 32/56/34 43/67/34 42/66/34
f 47/71/2 49/72/2 48/73/2
f 47/71/2 50/74/2 49/72/2
f 47/71/2 51/75/2 50/74/2
f 47/71/2 52/76/2 51/75/2
f 47/71/2 53/77/2 52/76/2
f 47/71/2 54/78/2 53/77/2
f 47/71/2 55/79/2 54/78/2
f 47/71/2 56/80/2 55/79/2
f 47/71/2 57/81/2 56/80/2
f 47/71/2 48/73/2 57/81/2
f 60/82/4 59/83/4 58/84/4
f 60/82/4 58/84/4 61/85/4
f 60/82/4 61/85/4 62/86/4
f 60/82/4 62/86/4 63/87/4
f 60/82/4 63/87/4 64/88/4
f 60/82/4 64/88/4 65/89/4
f 60/82/4 65/89/4 66/90/4
f 60/82/4 66/90/4 67/91/4
f 60/82/4 67/91/4 68/92/4
f 60/82/4 68/92/4 59/83/4
f 55/79/3 56/80/3 67/91/3 66/90/3
f 50/74/26 51/75/26 62/86/26 61/85/26
f 57/81/27 48/73/27 59/83/27 68/92/27
f 52/76/28 53/77/28 64/88/28 63/87/28
f 54/78/29 55/79/29 66/90/29 65/89/29
f 49/72/30 50/74/30 61/85/30 58/84/30
f 56/80/31 57/81/31 68/92/31 67/91/31
f 48/73/32 49/72/32 58/84/32 59/83/32
f 51/75/33 52/76/33 63/87/33 62/86/33
f 53/77/34 54/78/34 65/89/34 64/88/34
f 69/93/35 71/94/35 70/95/35
f 69/93/36 72/96/36 71/94/36
f 69/93/37 73/97/37 72/96/37
f 69/93/38 74/98/38 73/97/38
f 69/93/39 75/99/39 74/98/39
f 69/93/40 76/100/40 75/99/40
f 69/93/41 77/101/41 76/100/41
f 69/93/42 78/102/42 77/101/42
f 69/93/43 79/103/43 78/102/43
f 69/93/44 70/95/44 79/103/44
f 82/104/1 81/105/1 80/106/1
f 82/104/1 80/106/1 83/107/1
f 82/104/1 83/107/1 84/108/1
f 82/104/1 84/108/1 85/109/1
f 82/104/1 85/109/1 86/110/1
f 82/104/1 86/110/1 87/111/1
f 82/104/1 87/111/1 88/112/1
f 82/104/1 88/112/1 89/113/1
f 82/104/1 89/113/1 90/114/1
f 82/104/1 90/114/1 81/105/1
f 115/115/45 111/116/45 87/111/45 86/110/45
f 116/117/46 112/118/46 89/113/46 88/112/46
f 117/119/47 113/120/47 84/108/47 83/107/47
f 118/121/48 114/122/48 81/105/48 90/114/48
f 119/123/49 115/115/49 86/110/49 85/109/49
f 111/116/50 116/117/50 88/112/50 87/111/50
f 120/124/51 117/119/51 83/107/51 80/106/51
f 114/122/52 120/124/52 80/106/52 81/105/52
f 112/118/53 118/121/53 90/114/53 89/113/53
f 113/120/54 119/123/54 85/109/54 84/108/54
f 133/125/55 139/126/55 99/127/55 95/128/55
f 132/129/56 138/130/56 98/131/56 93/132/56
f 134/133/57 140/134/57 100/135/57 97/136/57
f 140/134/58 137/137/58 96/138/58 100/135/58
f 131/139/59 136/140/59 94/141/59 91/142/59
f 139/126/60 135/143/60 92/144/60 99/127/60
f 138/130/61 134/133/61 97/136/61 98/131/61
f 137/137/62 133/125/62 95/128/62 96/138/62
f 136/140/63 132/129/63 93/132/63 94/141/63
f 135/143/64 131/139/64 91/142/64 92/144/64
f 129/145/65 125/146/65 109/147/65 103/148/65
f 128/149/66 124/150/66 108/151/66 102/152/66
f 130/153/67 126/154/67 110/155/67 104/156/67
f 126/154/68 123/157/68 107/158/68 110/155/68
f 127/159/69 122/160/69 106/161/69 101/162/69
f 125/146/70 121/163/70 105/164/70 109/147/70
f 124/150/71 130/153/71 104/156/71 108/151/71
f 123/157/72 129/145/72 103/148/72 107/158/72
f 122/160/73 128/149/73 102/152/73 106/161/73
f 121/163/74 127/159/74 101/162/74 105/164/74
f 103/148/75 109/147/75 119/123/75 113/120/75
f 102/152/76 108/151/76 118/121/76 112/118/76
f 104/156/77 110/155/77 120/124/77 114/122/77
f 110/155/78 107/158/78 117/119/78 120/124/78
f 101/162/79 106/161/79 116/117/79 111/116/79
f 109/147/80 105/164/80 115/115/80 119/123/80
f 108/151/81 104/156/81 114/122/81 118/121/81
f 107/158/82 103/148/82 113/120/82 117/119/82
f 106/161/83 102/152/83 112/118/83 116/117/83
f 105/164/84 101/162/84 111/116/84 115/115/84
f 92/144/85 91/142/85 127/159/85 121/163/85
f 94/141/86 93/132/86 128/149/86 122/160/86
f 96/138/87 95/128/87 129/145/87 123/157/87
f 98/131/88 97/136/88 130/153/88 124/150/88
f 99/127/89 92/144/89 121/163/89 125/146/89
f 91/142/90 94/141/90 122/160/90 127/159/90
f 100/135/91 96/138/91 123/157/91 126/154/91
f 97/136/92 100/135/92 126/154/92 130/153/92
f 93/132/93 98/131/93 124/150/93 128/149/93
f 95/128/94 99/127/94 125/146/94 129/145/94
f 75/99/95 76/100/95 131/139/95 135/143/95
f 77/101/96 78/102/96 132/129/96 136/140/96
f 72/96/97 73/97/97 133/125/97 137/137/97
f 79/103/98 70/95/98 134/133/98 138/130/98
f 74/98/99 75/99/99 135/143/99 139/126/99
f 76/100/100 77/101/100 136/140/100 131/139/100
f 71/94/101 72/96/101 137/137/101 140/134/101
f 70/95/102 71/94/102 140/134/102 134/133/102
f 78/102/103 79/103/103 138/130/103 132/129/103
f 73/97/104 74/98/104 139/126/104 133/125/104
f 141/165/5 143/166/5 142/167/5
f 141/165/5 144/168/5 143/166/5
f 141/165/5 145/169/5 144/168/5
f 141/165/5 146/170/5 145/169/5
f 141/165/5 147/171/5 146/170/5
f 141/165/5 148/172/5 147/171/5
f 141/165/5 149/173/5 148/172/5
f 141/165/5 150/174/5 149/173/5
f 141/165/5 151/175/5 150/174/5
f 141/165/5 142/167/5 151/175/5
f 154/176/1 153/177/1 152/178/1
f 154/176/1 152/178/1 155/179/1
f 154/176/1 155/179/1 156/180/1
f 154/176/1 156/180/1 157/181/1
f 154/176/1 157/181/1 158/182/1
f 154/176/1 158/182/1 159/183/1
f 154/176/1 159/183/1 160/184/1
f 154/176/1 160/184/1 161/185/1
f 154/176/1 161/185/1 162/186/1
f 154/176/1 162/186/1 153/177/1
f 147/171/105 148/172/105 159/183/105 158/182/105
f 149/173/2 150/174/2 161/185/2 160/184/2
f 144/168/4 145/169/4 156/180/4 155/179/4
f 151/175/106 142/167/106 153/177/106 162/186/106
f 146/170/107 147/171/107 158/182/107 157/181/107
f 148/172/108 149/173/108 160/184/108 159/183/108
f 143/166/109 144/168/109 155/179/109 152/178/109
f 150/174/110 151/175/110 162/186/110 161/185/110
f 142/167/111 143/166/111 152/178/111 153/177/111
f 145/169/112 146/170/112 157/181/112 156/180/112
